<?xml version="1.0" encoding="UTF-8"?> <svg xmlns="http://www.w3.org/2000/svg" id="Layer_1" data-name="Layer 1" viewBox="0 0 438.99 658.49"> <defs> <style>.cls-1{fill:#0acf83;}.cls-2{fill:#a259ff;}.cls-3{fill:#f24e1e;}.cls-4{fill:#ff7262;}.cls-5{fill:#1abcfe;}</style> </defs> <title>Artboard 8gg</title> <path id="path0_fill" data-name="path0 fill" class="cls-1" d="M109.75,658.49A109.79,109.79,0,0,0,219.5,548.74V439H109.75a109.75,109.75,0,0,0,0,219.5Z"></path> <path id="path1_fill" data-name="path1 fill" class="cls-2" d="M0,329.24A109.78,109.78,0,0,1,109.75,219.5H219.5V439H109.75A109.79,109.79,0,0,1,0,329.24Z"></path> <path id="path1_fill-2" data-name="path1 fill" class="cls-3" d="M0,109.75A109.79,109.79,0,0,1,109.75,0H219.5V219.5H109.75A109.79,109.79,0,0,1,0,109.75Z"></path> <path id="path2_fill" data-name="path2 fill" class="cls-4" d="M219.5,0H329.24a109.75,109.75,0,0,1,0,219.5H219.5Z"></path> <path id="path3_fill" data-name="path3 fill" class="cls-5" d="M439,329.24A109.75,109.75,0,1,1,329.24,219.5,109.78,109.78,0,0,1,439,329.24Z"></path> </svg> 