<svg width="114" height="55" viewBox="0 0 114 55" fill="none" xmlns="http://www.w3.org/2000/svg">
<rect width="1440" height="1024" transform="translate(-183 -59)" fill="white"/>
<path d="M19.4598 14.008L7.4718 18.4L19.4598 22.756V27.256L2.3238 20.74V16.06L19.4598 9.544V14.008ZM45.7339 5.8C47.9659 5.8 49.8979 6.172 51.5299 6.916C53.1859 7.66 54.4579 8.716 55.3459 10.084C56.2339 11.452 56.6779 13.072 56.6779 14.944C56.6779 16.792 56.2339 18.412 55.3459 19.804C54.4579 21.172 53.1859 22.228 51.5299 22.972C49.8979 23.692 47.9659 24.052 45.7339 24.052H40.6579V31H34.8259V5.8H45.7339ZM45.4099 19.3C47.1619 19.3 48.4939 18.928 49.4059 18.184C50.3179 17.416 50.7739 16.336 50.7739 14.944C50.7739 13.528 50.3179 12.448 49.4059 11.704C48.4939 10.936 47.1619 10.552 45.4099 10.552H40.6579V19.3H45.4099ZM69.4731 31.432C67.4811 31.432 65.5491 31.168 63.6771 30.64C61.8291 30.088 60.3411 29.38 59.2131 28.516L61.1931 24.124C62.2731 24.916 63.5571 25.552 65.0451 26.032C66.5331 26.512 68.0211 26.752 69.5091 26.752C71.1651 26.752 72.3891 26.512 73.1811 26.032C73.9731 25.528 74.3691 24.868 74.3691 24.052C74.3691 23.452 74.1291 22.96 73.6491 22.576C73.1931 22.168 72.5931 21.844 71.8491 21.604C71.1291 21.364 70.1451 21.1 68.8971 20.812C66.9771 20.356 65.4051 19.9 64.1811 19.444C62.9571 18.988 61.9011 18.256 61.0131 17.248C60.1491 16.24 59.7171 14.896 59.7171 13.216C59.7171 11.752 60.1131 10.432 60.9051 9.256C61.6971 8.056 62.8851 7.108 64.4691 6.412C66.0771 5.716 68.0331 5.368 70.3371 5.368C71.9451 5.368 73.5171 5.56 75.0531 5.944C76.5891 6.328 77.9331 6.88 79.0851 7.6L77.2851 12.028C74.9571 10.708 72.6291 10.048 70.3011 10.048C68.6691 10.048 67.4571 10.312 66.6651 10.84C65.8971 11.368 65.5131 12.064 65.5131 12.928C65.5131 13.792 65.9571 14.44 66.8451 14.872C67.7571 15.28 69.1371 15.688 70.9851 16.096C72.9051 16.552 74.4771 17.008 75.7011 17.464C76.9251 17.92 77.9691 18.64 78.8331 19.624C79.7211 20.608 80.1651 21.94 80.1651 23.62C80.1651 25.06 79.7571 26.38 78.9411 27.58C78.1491 28.756 76.9491 29.692 75.3411 30.388C73.7331 31.084 71.7771 31.432 69.4731 31.432ZM110.725 16.06V20.74L93.5894 27.256V22.756L105.577 18.4L93.5894 14.008V9.544L110.725 16.06Z" fill="#212121"/>
<path d="M9.88207 40C10.7754 40 11.4754 40.2133 11.9821 40.64C12.4887 41.0667 12.7421 41.6533 12.7421 42.4C12.7421 43.1467 12.4887 43.7333 11.9821 44.16C11.4754 44.58 10.7754 44.79 9.88207 44.79H8.00207V47H7.26207V40H9.88207ZM9.86207 44.14C10.5554 44.14 11.0854 43.99 11.4521 43.69C11.8187 43.3833 12.0021 42.9533 12.0021 42.4C12.0021 41.8333 11.8187 41.4 11.4521 41.1C11.0854 40.7933 10.5554 40.64 9.86207 40.64H8.00207V44.14H9.86207ZM15.9833 41.7C16.67 41.7 17.1967 41.8733 17.5633 42.22C17.93 42.56 18.1133 43.0667 18.1133 43.74V47H17.4333V46.18C17.2733 46.4533 17.0367 46.6667 16.7233 46.82C16.4167 46.9733 16.05 47.05 15.6233 47.05C15.0367 47.05 14.57 46.91 14.2233 46.63C13.8767 46.35 13.7033 45.98 13.7033 45.52C13.7033 45.0733 13.8633 44.7133 14.1833 44.44C14.51 44.1667 15.0267 44.03 15.7333 44.03H17.4033V43.71C17.4033 43.2567 17.2767 42.9133 17.0233 42.68C16.77 42.44 16.4 42.32 15.9133 42.32C15.58 42.32 15.26 42.3767 14.9533 42.49C14.6467 42.5967 14.3833 42.7467 14.1633 42.94L13.8433 42.41C14.11 42.1833 14.43 42.01 14.8033 41.89C15.1767 41.7633 15.57 41.7 15.9833 41.7ZM15.7333 46.49C16.1333 46.49 16.4767 46.4 16.7633 46.22C17.05 46.0333 17.2633 45.7667 17.4033 45.42V44.56H15.7533C14.8533 44.56 14.4033 44.8733 14.4033 45.5C14.4033 45.8067 14.52 46.05 14.7533 46.23C14.9867 46.4033 15.3133 46.49 15.7333 46.49ZM24.3641 41.74L22.0241 47H21.2941L18.9641 41.74H19.7041L21.6741 46.22L23.6641 41.74H24.3641ZM29.7975 44.59H25.3975C25.4375 45.1367 25.6475 45.58 26.0275 45.92C26.4075 46.2533 26.8875 46.42 27.4675 46.42C27.7942 46.42 28.0942 46.3633 28.3675 46.25C28.6409 46.13 28.8775 45.9567 29.0775 45.73L29.4775 46.19C29.2442 46.47 28.9509 46.6833 28.5975 46.83C28.2509 46.9767 27.8675 47.05 27.4475 47.05C26.9075 47.05 26.4275 46.9367 26.0075 46.71C25.5942 46.4767 25.2709 46.1567 25.0375 45.75C24.8042 45.3433 24.6875 44.8833 24.6875 44.37C24.6875 43.8567 24.7975 43.3967 25.0175 42.99C25.2442 42.5833 25.5509 42.2667 25.9375 42.04C26.3309 41.8133 26.7709 41.7 27.2575 41.7C27.7442 41.7 28.1809 41.8133 28.5675 42.04C28.9542 42.2667 29.2575 42.5833 29.4775 42.99C29.6975 43.39 29.8075 43.85 29.8075 44.37L29.7975 44.59ZM27.2575 42.31C26.7509 42.31 26.3242 42.4733 25.9775 42.8C25.6375 43.12 25.4442 43.54 25.3975 44.06H29.1275C29.0809 43.54 28.8842 43.12 28.5375 42.8C28.1975 42.4733 27.7709 42.31 27.2575 42.31ZM31.2527 39.58H31.9627V47H31.2527V39.58ZM38.6354 47.06C38.1154 47.06 37.6154 46.9767 37.1354 46.81C36.6621 46.6433 36.2954 46.4233 36.0354 46.15L36.3254 45.58C36.5788 45.8333 36.9154 46.04 37.3354 46.2C37.7554 46.3533 38.1888 46.43 38.6354 46.43C39.2621 46.43 39.7321 46.3167 40.0454 46.09C40.3588 45.8567 40.5154 45.5567 40.5154 45.19C40.5154 44.91 40.4288 44.6867 40.2554 44.52C40.0888 44.3533 39.8821 44.2267 39.6354 44.14C39.3888 44.0467 39.0454 43.9467 38.6054 43.84C38.0788 43.7067 37.6588 43.58 37.3454 43.46C37.0321 43.3333 36.7621 43.1433 36.5354 42.89C36.3154 42.6367 36.2054 42.2933 36.2054 41.86C36.2054 41.5067 36.2988 41.1867 36.4854 40.9C36.6721 40.6067 36.9588 40.3733 37.3454 40.2C37.7321 40.0267 38.2121 39.94 38.7854 39.94C39.1854 39.94 39.5754 39.9967 39.9554 40.11C40.3421 40.2167 40.6754 40.3667 40.9554 40.56L40.7054 41.15C40.4121 40.9567 40.0988 40.8133 39.7654 40.72C39.4321 40.62 39.1054 40.57 38.7854 40.57C38.1721 40.57 37.7088 40.69 37.3954 40.93C37.0888 41.1633 36.9354 41.4667 36.9354 41.84C36.9354 42.12 37.0188 42.3467 37.1854 42.52C37.3588 42.6867 37.5721 42.8167 37.8254 42.91C38.0854 42.9967 38.4321 43.0933 38.8654 43.2C39.3788 43.3267 39.7921 43.4533 40.1054 43.58C40.4254 43.7 40.6954 43.8867 40.9154 44.14C41.1354 44.3867 41.2454 44.7233 41.2454 45.15C41.2454 45.5033 41.1488 45.8267 40.9554 46.12C40.7688 46.4067 40.4788 46.6367 40.0854 46.81C39.6921 46.9767 39.2088 47.06 38.6354 47.06ZM45.3878 41.7C46.0478 41.7 46.5711 41.8933 46.9578 42.28C47.3511 42.66 47.5478 43.2167 47.5478 43.95V47H46.8378V44.02C46.8378 43.4733 46.7011 43.0567 46.4278 42.77C46.1544 42.4833 45.7644 42.34 45.2578 42.34C44.6911 42.34 44.2411 42.51 43.9078 42.85C43.5811 43.1833 43.4178 43.6467 43.4178 44.24V47H42.7078V39.58H43.4178V42.66C43.6111 42.3533 43.8778 42.1167 44.2178 41.95C44.5578 41.7833 44.9478 41.7 45.3878 41.7ZM51.3154 41.7C52.002 41.7 52.5287 41.8733 52.8954 42.22C53.262 42.56 53.4454 43.0667 53.4454 43.74V47H52.7654V46.18C52.6054 46.4533 52.3687 46.6667 52.0554 46.82C51.7487 46.9733 51.382 47.05 50.9554 47.05C50.3687 47.05 49.902 46.91 49.5554 46.63C49.2087 46.35 49.0354 45.98 49.0354 45.52C49.0354 45.0733 49.1954 44.7133 49.5154 44.44C49.842 44.1667 50.3587 44.03 51.0654 44.03H52.7354V43.71C52.7354 43.2567 52.6087 42.9133 52.3554 42.68C52.102 42.44 51.732 42.32 51.2454 42.32C50.912 42.32 50.592 42.3767 50.2854 42.49C49.9787 42.5967 49.7154 42.7467 49.4954 42.94L49.1754 42.41C49.442 42.1833 49.762 42.01 50.1354 41.89C50.5087 41.7633 50.902 41.7 51.3154 41.7ZM51.0654 46.49C51.4654 46.49 51.8087 46.4 52.0954 46.22C52.382 46.0333 52.5954 45.7667 52.7354 45.42V44.56H51.0854C50.1854 44.56 49.7354 44.8733 49.7354 45.5C49.7354 45.8067 49.852 46.05 50.0854 46.23C50.3187 46.4033 50.6454 46.49 51.0654 46.49ZM58.0838 41.7C58.5771 41.7 59.0238 41.8133 59.4238 42.04C59.8238 42.26 60.1371 42.5733 60.3638 42.98C60.5905 43.3867 60.7038 43.85 60.7038 44.37C60.7038 44.8967 60.5905 45.3633 60.3638 45.77C60.1371 46.1767 59.8238 46.4933 59.4238 46.72C59.0305 46.94 58.5838 47.05 58.0838 47.05C57.6571 47.05 57.2705 46.9633 56.9238 46.79C56.5838 46.61 56.3038 46.35 56.0838 46.01V48.94H55.3738V41.74H56.0538V42.78C56.2671 42.4333 56.5471 42.1667 56.8938 41.98C57.2471 41.7933 57.6438 41.7 58.0838 41.7ZM58.0338 46.42C58.4005 46.42 58.7338 46.3367 59.0338 46.17C59.3338 45.9967 59.5671 45.7533 59.7338 45.44C59.9071 45.1267 59.9938 44.77 59.9938 44.37C59.9938 43.97 59.9071 43.6167 59.7338 43.31C59.5671 42.9967 59.3338 42.7533 59.0338 42.58C58.7338 42.4067 58.4005 42.32 58.0338 42.32C57.6605 42.32 57.3238 42.4067 57.0238 42.58C56.7305 42.7533 56.4971 42.9967 56.3238 43.31C56.1571 43.6167 56.0738 43.97 56.0738 44.37C56.0738 44.77 56.1571 45.1267 56.3238 45.44C56.4971 45.7533 56.7305 45.9967 57.0238 46.17C57.3238 46.3367 57.6605 46.42 58.0338 46.42ZM64.3011 47.05C63.7945 47.05 63.3378 46.9367 62.9311 46.71C62.5245 46.4767 62.2045 46.1567 61.9711 45.75C61.7378 45.3433 61.6211 44.8833 61.6211 44.37C61.6211 43.8567 61.7378 43.3967 61.9711 42.99C62.2045 42.5833 62.5245 42.2667 62.9311 42.04C63.3378 41.8133 63.7945 41.7 64.3011 41.7C64.8078 41.7 65.2645 41.8133 65.6711 42.04C66.0778 42.2667 66.3945 42.5833 66.6211 42.99C66.8545 43.3967 66.9711 43.8567 66.9711 44.37C66.9711 44.8833 66.8545 45.3433 66.6211 45.75C66.3945 46.1567 66.0778 46.4767 65.6711 46.71C65.2645 46.9367 64.8078 47.05 64.3011 47.05ZM64.3011 46.42C64.6745 46.42 65.0078 46.3367 65.3011 46.17C65.6011 45.9967 65.8345 45.7533 66.0011 45.44C66.1678 45.1267 66.2511 44.77 66.2511 44.37C66.2511 43.97 66.1678 43.6133 66.0011 43.3C65.8345 42.9867 65.6011 42.7467 65.3011 42.58C65.0078 42.4067 64.6745 42.32 64.3011 42.32C63.9278 42.32 63.5911 42.4067 63.2911 42.58C62.9978 42.7467 62.7645 42.9867 62.5911 43.3C62.4245 43.6133 62.3411 43.97 62.3411 44.37C62.3411 44.77 62.4245 45.1267 62.5911 45.44C62.7645 45.7533 62.9978 45.9967 63.2911 46.17C63.5911 46.3367 63.9278 46.42 64.3011 46.42ZM69.8307 47.05C69.404 47.05 68.994 46.99 68.6007 46.87C68.214 46.7433 67.9107 46.5867 67.6907 46.4L68.0107 45.84C68.2307 46.0133 68.5073 46.1567 68.8407 46.27C69.174 46.3767 69.5207 46.43 69.8807 46.43C70.3607 46.43 70.714 46.3567 70.9407 46.21C71.174 46.0567 71.2907 45.8433 71.2907 45.57C71.2907 45.3767 71.2273 45.2267 71.1007 45.12C70.974 45.0067 70.814 44.9233 70.6207 44.87C70.4273 44.81 70.1707 44.7533 69.8507 44.7C69.424 44.62 69.0807 44.54 68.8207 44.46C68.5607 44.3733 68.3373 44.23 68.1507 44.03C67.9707 43.83 67.8807 43.5533 67.8807 43.2C67.8807 42.76 68.064 42.4 68.4307 42.12C68.7973 41.84 69.3073 41.7 69.9607 41.7C70.3007 41.7 70.6407 41.7467 70.9807 41.84C71.3207 41.9267 71.6007 42.0433 71.8207 42.19L71.5107 42.76C71.0773 42.46 70.5607 42.31 69.9607 42.31C69.5073 42.31 69.164 42.39 68.9307 42.55C68.704 42.71 68.5907 42.92 68.5907 43.18C68.5907 43.38 68.654 43.54 68.7807 43.66C68.914 43.78 69.0773 43.87 69.2707 43.93C69.464 43.9833 69.7307 44.04 70.0707 44.1C70.4907 44.18 70.8273 44.26 71.0807 44.34C71.334 44.42 71.5507 44.5567 71.7307 44.75C71.9107 44.9433 72.0007 45.21 72.0007 45.55C72.0007 46.01 71.8073 46.3767 71.4207 46.65C71.0407 46.9167 70.5107 47.05 69.8307 47.05ZM75.9932 41.7C76.6532 41.7 77.1766 41.8933 77.5632 42.28C77.9566 42.66 78.1532 43.2167 78.1532 43.95V47H77.4432V44.02C77.4432 43.4733 77.3066 43.0567 77.0332 42.77C76.7599 42.4833 76.3699 42.34 75.8632 42.34C75.2966 42.34 74.8466 42.51 74.5132 42.85C74.1866 43.1833 74.0232 43.6467 74.0232 44.24V47H73.3132V39.58H74.0232V42.66C74.2166 42.3533 74.4832 42.1167 74.8232 41.95C75.1632 41.7833 75.5532 41.7 75.9932 41.7ZM82.7608 41.7C83.4208 41.7 83.9442 41.8933 84.3308 42.28C84.7242 42.66 84.9208 43.2167 84.9208 43.95V47H84.2108V44.02C84.2108 43.4733 84.0742 43.0567 83.8008 42.77C83.5275 42.4833 83.1375 42.34 82.6308 42.34C82.0642 42.34 81.6142 42.51 81.2808 42.85C80.9542 43.1833 80.7908 43.6467 80.7908 44.24V47H80.0808V41.74H80.7608V42.71C80.9542 42.39 81.2208 42.1433 81.5608 41.97C81.9075 41.79 82.3075 41.7 82.7608 41.7ZM86.8484 41.74H87.5584V47H86.8484V41.74ZM87.2084 40.59C87.0617 40.59 86.9384 40.54 86.8384 40.44C86.7384 40.34 86.6884 40.22 86.6884 40.08C86.6884 39.9467 86.7384 39.83 86.8384 39.73C86.9384 39.63 87.0617 39.58 87.2084 39.58C87.3551 39.58 87.4784 39.63 87.5784 39.73C87.6784 39.8233 87.7284 39.9367 87.7284 40.07C87.7284 40.2167 87.6784 40.34 87.5784 40.44C87.4784 40.54 87.3551 40.59 87.2084 40.59ZM91.4839 44.36L90.2439 45.5V47H89.5339V39.58H90.2439V44.61L93.3839 41.74H94.2639L92.0139 43.89L94.4739 47H93.6039L91.4839 44.36ZM97.475 47.05C96.9683 47.05 96.5116 46.9367 96.105 46.71C95.6983 46.4767 95.3783 46.1567 95.145 45.75C94.9116 45.3433 94.795 44.8833 94.795 44.37C94.795 43.8567 94.9116 43.3967 95.145 42.99C95.3783 42.5833 95.6983 42.2667 96.105 42.04C96.5116 41.8133 96.9683 41.7 97.475 41.7C97.9816 41.7 98.4383 41.8133 98.845 42.04C99.2516 42.2667 99.5683 42.5833 99.795 42.99C100.028 43.3967 100.145 43.8567 100.145 44.37C100.145 44.8833 100.028 45.3433 99.795 45.75C99.5683 46.1567 99.2516 46.4767 98.845 46.71C98.4383 46.9367 97.9816 47.05 97.475 47.05ZM97.475 46.42C97.8483 46.42 98.1816 46.3367 98.475 46.17C98.775 45.9967 99.0083 45.7533 99.175 45.44C99.3416 45.1267 99.425 44.77 99.425 44.37C99.425 43.97 99.3416 43.6133 99.175 43.3C99.0083 42.9867 98.775 42.7467 98.475 42.58C98.1816 42.4067 97.8483 42.32 97.475 42.32C97.1016 42.32 96.765 42.4067 96.465 42.58C96.1716 42.7467 95.9383 42.9867 95.765 43.3C95.5983 43.6133 95.515 43.97 95.515 44.37C95.515 44.77 95.5983 45.1267 95.765 45.44C95.9383 45.7533 96.1716 45.9967 96.465 46.17C96.765 46.3367 97.1016 46.42 97.475 46.42ZM105.868 41.74L103.528 47H102.798L100.468 41.74H101.208L103.178 46.22L105.168 41.74H105.868Z" fill="black"/>
</svg>
