<svg width="38" height="9" viewBox="0 0 38 9" fill="none" xmlns="http://www.w3.org/2000/svg">
<path d="M6.33433 1.864L2.00533 3.45L6.33433 5.023V6.648L0.146332 4.295V2.605L6.33433 0.252V1.864ZM10.9276 5.27C11.2642 5.27 11.5309 5.37 11.7276 5.57C11.9276 5.76667 12.0276 6.06333 12.0276 6.46V8H11.2476V6.58C11.2476 6.36667 11.2026 6.20833 11.1126 6.105C11.0259 5.99833 10.9009 5.945 10.7376 5.945C10.5542 5.945 10.4092 6.005 10.3026 6.125C10.1959 6.24167 10.1426 6.41667 10.1426 6.65V8H9.36256V6.58C9.36256 6.15667 9.19256 5.945 8.85256 5.945C8.67256 5.945 8.52923 6.005 8.42256 6.125C8.31589 6.24167 8.26256 6.41667 8.26256 6.65V8H7.48256V5.31H8.22756V5.62C8.32756 5.50667 8.44923 5.42 8.59256 5.36C8.73923 5.3 8.89923 5.27 9.07256 5.27C9.26256 5.27 9.43423 5.30833 9.58756 5.385C9.74089 5.45833 9.86423 5.56667 9.95756 5.71C10.0676 5.57 10.2059 5.46167 10.3726 5.385C10.5426 5.30833 10.7276 5.27 10.9276 5.27ZM15.391 6.665C15.391 6.675 15.386 6.745 15.376 6.875H13.341C13.3777 7.04167 13.4643 7.17333 13.601 7.27C13.7377 7.36667 13.9077 7.415 14.111 7.415C14.251 7.415 14.3743 7.395 14.481 7.355C14.591 7.31167 14.6927 7.245 14.786 7.155L15.201 7.605C14.9477 7.895 14.5777 8.04 14.091 8.04C13.7877 8.04 13.5193 7.98167 13.286 7.865C13.0527 7.745 12.8727 7.58 12.746 7.37C12.6193 7.16 12.556 6.92167 12.556 6.655C12.556 6.39167 12.6177 6.155 12.741 5.945C12.8677 5.73167 13.0393 5.56667 13.256 5.45C13.476 5.33 13.721 5.27 13.991 5.27C14.2543 5.27 14.4927 5.32667 14.706 5.44C14.9193 5.55333 15.086 5.71667 15.206 5.93C15.3293 6.14 15.391 6.385 15.391 6.665ZM13.996 5.86C13.8193 5.86 13.671 5.91 13.551 6.01C13.431 6.11 13.3577 6.24667 13.331 6.42H14.656C14.6293 6.25 14.556 6.115 14.436 6.015C14.316 5.91167 14.1693 5.86 13.996 5.86ZM17.5003 5.27C17.7503 5.27 17.977 5.32833 18.1803 5.445C18.387 5.55833 18.5486 5.72 18.6653 5.93C18.782 6.13667 18.8403 6.37833 18.8403 6.655C18.8403 6.93167 18.782 7.175 18.6653 7.385C18.5486 7.59167 18.387 7.75333 18.1803 7.87C17.977 7.98333 17.7503 8.04 17.5003 8.04C17.157 8.04 16.887 7.93167 16.6903 7.715V8.97H15.9103V5.31H16.6553V5.62C16.8486 5.38667 17.1303 5.27 17.5003 5.27ZM17.3653 7.4C17.5653 7.4 17.7286 7.33333 17.8553 7.2C17.9853 7.06333 18.0503 6.88167 18.0503 6.655C18.0503 6.42833 17.9853 6.24833 17.8553 6.115C17.7286 5.97833 17.5653 5.91 17.3653 5.91C17.1653 5.91 17.0003 5.97833 16.8703 6.115C16.7436 6.24833 16.6803 6.42833 16.6803 6.655C16.6803 6.88167 16.7436 7.06333 16.8703 7.2C17.0003 7.33333 17.1653 7.4 17.3653 7.4ZM20.4035 5.27C20.8202 5.27 21.1402 5.37 21.3635 5.57C21.5868 5.76667 21.6985 6.065 21.6985 6.465V8H20.9685V7.665C20.8218 7.915 20.5485 8.04 20.1485 8.04C19.9418 8.04 19.7618 8.005 19.6085 7.935C19.4585 7.865 19.3435 7.76833 19.2635 7.645C19.1835 7.52167 19.1435 7.38167 19.1435 7.225C19.1435 6.975 19.2368 6.77833 19.4235 6.635C19.6135 6.49167 19.9052 6.42 20.2985 6.42H20.9185C20.9185 6.25 20.8668 6.12 20.7635 6.03C20.6602 5.93667 20.5052 5.89 20.2985 5.89C20.1552 5.89 20.0135 5.91333 19.8735 5.96C19.7368 6.00333 19.6202 6.06333 19.5235 6.14L19.2435 5.595C19.3902 5.49167 19.5652 5.41167 19.7685 5.355C19.9752 5.29833 20.1868 5.27 20.4035 5.27ZM20.3435 7.515C20.4768 7.515 20.5952 7.485 20.6985 7.425C20.8018 7.36167 20.8752 7.27 20.9185 7.15V6.875H20.3835C20.0635 6.875 19.9035 6.98 19.9035 7.19C19.9035 7.29 19.9418 7.37 20.0185 7.43C20.0985 7.48667 20.2068 7.515 20.3435 7.515ZM25.0256 5.31L23.8906 8H23.0856L21.9556 5.31H22.7606L23.5056 7.14L24.2756 5.31H25.0256ZM27.9056 6.665C27.9056 6.675 27.9006 6.745 27.8906 6.875H25.8556C25.8923 7.04167 25.979 7.17333 26.1156 7.27C26.2523 7.36667 26.4223 7.415 26.6256 7.415C26.7656 7.415 26.889 7.395 26.9956 7.355C27.1056 7.31167 27.2073 7.245 27.3006 7.155L27.7156 7.605C27.4623 7.895 27.0923 8.04 26.6056 8.04C26.3023 8.04 26.034 7.98167 25.8006 7.865C25.5673 7.745 25.3873 7.58 25.2606 7.37C25.134 7.16 25.0706 6.92167 25.0706 6.655C25.0706 6.39167 25.1323 6.155 25.2556 5.945C25.3823 5.73167 25.554 5.56667 25.7706 5.45C25.9906 5.33 26.2356 5.27 26.5056 5.27C26.769 5.27 27.0073 5.32667 27.2206 5.44C27.434 5.55333 27.6006 5.71667 27.7206 5.93C27.844 6.14 27.9056 6.385 27.9056 6.665ZM26.5106 5.86C26.334 5.86 26.1856 5.91 26.0656 6.01C25.9456 6.11 25.8723 6.24667 25.8456 6.42H27.1706C27.144 6.25 27.0706 6.115 26.9506 6.015C26.8306 5.91167 26.684 5.86 26.5106 5.86ZM28.4249 4.29H29.2049V8H28.4249V4.29ZM30.2238 8.04C30.0872 8.04 29.9722 7.99333 29.8788 7.9C29.7855 7.80667 29.7388 7.69 29.7388 7.55C29.7388 7.40667 29.7855 7.29167 29.8788 7.205C29.9722 7.115 30.0872 7.07 30.2238 7.07C30.3605 7.07 30.4755 7.115 30.5688 7.205C30.6622 7.29167 30.7088 7.40667 30.7088 7.55C30.7088 7.69 30.6622 7.80667 30.5688 7.9C30.4755 7.99333 30.3605 8.04 30.2238 8.04ZM37.8714 2.605V4.295L31.6834 6.648V5.023L36.0124 3.45L31.6834 1.864V0.252L37.8714 2.605Z" fill="#212121"/>
</svg>
