<svg width="210" height="34" viewBox="0 0 210 34" fill="none" xmlns="http://www.w3.org/2000/svg">
<path d="M17.2996 10.008L5.31164 14.4L17.2996 18.756V23.256L0.163641 16.74V12.06L17.2996 5.544V10.008ZM46.8784 7.344C49.3024 7.344 51.2224 8.064 52.6384 9.504C54.0784 10.92 54.7984 13.056 54.7984 15.912V27H49.1824V16.776C49.1824 15.24 48.8584 14.1 48.2104 13.356C47.5864 12.588 46.6864 12.204 45.5104 12.204C44.1904 12.204 43.1464 12.636 42.3784 13.5C41.6104 14.34 41.2264 15.6 41.2264 17.28V27H35.6104V16.776C35.6104 13.728 34.3864 12.204 31.9384 12.204C30.6424 12.204 29.6104 12.636 28.8424 13.5C28.0744 14.34 27.6904 15.6 27.6904 17.28V27H22.0744V7.632H27.4384V9.864C28.1584 9.048 29.0344 8.424 30.0664 7.992C31.1224 7.56 32.2744 7.344 33.5224 7.344C34.8904 7.344 36.1264 7.62 37.2304 8.172C38.3344 8.7 39.2224 9.48 39.8944 10.512C40.6864 9.504 41.6824 8.724 42.8824 8.172C44.1064 7.62 45.4384 7.344 46.8784 7.344ZM79.0152 17.388C79.0152 17.46 78.9792 17.964 78.9072 18.9H64.2552C64.5192 20.1 65.1432 21.048 66.1272 21.744C67.1112 22.44 68.3352 22.788 69.7992 22.788C70.8072 22.788 71.6952 22.644 72.4632 22.356C73.2552 22.044 73.9872 21.564 74.6592 20.916L77.6472 24.156C75.8232 26.244 73.1592 27.288 69.6552 27.288C67.4712 27.288 65.5392 26.868 63.8592 26.028C62.1792 25.164 60.8832 23.976 59.9712 22.464C59.0592 20.952 58.6032 19.236 58.6032 17.316C58.6032 15.42 59.0472 13.716 59.9352 12.204C60.8472 10.668 62.0832 9.48 63.6432 8.64C65.2272 7.776 66.9912 7.344 68.9352 7.344C70.8312 7.344 72.5472 7.752 74.0832 8.568C75.6192 9.384 76.8192 10.56 77.6832 12.096C78.5712 13.608 79.0152 15.372 79.0152 17.388ZM68.9712 11.592C67.6992 11.592 66.6312 11.952 65.7672 12.672C64.9032 13.392 64.3752 14.376 64.1832 15.624H73.7232C73.5312 14.4 73.0032 13.428 72.1392 12.708C71.2752 11.964 70.2192 11.592 68.9712 11.592ZM94.2021 7.344C96.0021 7.344 97.6341 7.764 99.0981 8.604C100.586 9.42 101.75 10.584 102.59 12.096C103.43 13.584 103.85 15.324 103.85 17.316C103.85 19.308 103.43 21.06 102.59 22.572C101.75 24.06 100.586 25.224 99.0981 26.064C97.6341 26.88 96.0021 27.288 94.2021 27.288C91.7301 27.288 89.7861 26.508 88.3701 24.948V33.984H82.7541V7.632H88.1181V9.864C89.5101 8.184 91.5381 7.344 94.2021 7.344ZM93.2301 22.68C94.6701 22.68 95.8461 22.2 96.7581 21.24C97.6941 20.256 98.1621 18.948 98.1621 17.316C98.1621 15.684 97.6941 14.388 96.7581 13.428C95.8461 12.444 94.6701 11.952 93.2301 11.952C91.7901 11.952 90.6021 12.444 89.6661 13.428C88.7541 14.388 88.2981 15.684 88.2981 17.316C88.2981 18.948 88.7541 20.256 89.6661 21.24C90.6021 22.2 91.7901 22.68 93.2301 22.68ZM115.105 7.344C118.105 7.344 120.409 8.064 122.017 9.504C123.625 10.92 124.429 13.068 124.429 15.948V27H119.173V24.588C118.117 26.388 116.149 27.288 113.269 27.288C111.781 27.288 110.485 27.036 109.381 26.532C108.301 26.028 107.473 25.332 106.897 24.444C106.321 23.556 106.033 22.548 106.033 21.42C106.033 19.62 106.705 18.204 108.049 17.172C109.417 16.14 111.517 15.624 114.349 15.624H118.813C118.813 14.4 118.441 13.464 117.697 12.816C116.953 12.144 115.837 11.808 114.349 11.808C113.317 11.808 112.297 11.976 111.289 12.312C110.305 12.624 109.465 13.056 108.769 13.608L106.753 9.684C107.809 8.94 109.069 8.364 110.533 7.956C112.021 7.548 113.545 7.344 115.105 7.344ZM114.673 23.508C115.633 23.508 116.485 23.292 117.229 22.86C117.973 22.404 118.501 21.744 118.813 20.88V18.9H114.961C112.657 18.9 111.505 19.656 111.505 21.168C111.505 21.888 111.781 22.464 112.333 22.896C112.909 23.304 113.689 23.508 114.673 23.508ZM148.384 7.632L140.212 27H134.416L126.28 7.632H132.076L137.44 20.808L142.984 7.632H148.384ZM169.121 17.388C169.121 17.46 169.085 17.964 169.013 18.9H154.361C154.625 20.1 155.249 21.048 156.233 21.744C157.217 22.44 158.441 22.788 159.905 22.788C160.913 22.788 161.801 22.644 162.569 22.356C163.361 22.044 164.093 21.564 164.765 20.916L167.753 24.156C165.929 26.244 163.265 27.288 159.761 27.288C157.577 27.288 155.645 26.868 153.965 26.028C152.285 25.164 150.989 23.976 150.077 22.464C149.165 20.952 148.709 19.236 148.709 17.316C148.709 15.42 149.153 13.716 150.041 12.204C150.953 10.668 152.189 9.48 153.749 8.64C155.333 7.776 157.097 7.344 159.041 7.344C160.937 7.344 162.653 7.752 164.189 8.568C165.725 9.384 166.925 10.56 167.789 12.096C168.677 13.608 169.121 15.372 169.121 17.388ZM159.077 11.592C157.805 11.592 156.737 11.952 155.873 12.672C155.009 13.392 154.481 14.376 154.289 15.624H163.829C163.637 14.4 163.109 13.428 162.245 12.708C161.381 11.964 160.325 11.592 159.077 11.592ZM172.86 0.287998H178.476V27H172.86V0.287998ZM185.812 27.288C184.828 27.288 184 26.952 183.328 26.28C182.656 25.608 182.32 24.768 182.32 23.76C182.32 22.728 182.656 21.9 183.328 21.276C184 20.628 184.828 20.304 185.812 20.304C186.796 20.304 187.624 20.628 188.296 21.276C188.968 21.9 189.304 22.728 189.304 23.76C189.304 24.768 188.968 25.608 188.296 26.28C187.624 26.952 186.796 27.288 185.812 27.288ZM209.886 12.06V16.74L192.75 23.256V18.756L204.738 14.4L192.75 10.008V5.544L209.886 12.06Z" fill="#212121"/>
</svg>
